<?xml version='1.0' encoding='utf-8'?>
<svg xmlns="http://www.w3.org/2000/svg" width="204" height="49" viewBox="0 0 204 49" fill="none">
<path d="M69.7544 0.435587C69.7794 0.430255 69.8044 0.424922 69.8295 0.419591C82.5606 -1.02675 91.1677 12.9042 84.2191 23.6538C81.5734 27.7468 78.3395 29.4398 73.6034 30.2713C69.2023 30.5371 65.7568 30.0543 62.209 27.2376C51.832 18.9991 56.2053 1.96973 69.7544 0.435587ZM72.9237 25.5545C78.5458 24.7983 82.4945 19.6312 81.7494 14.0054C81.0042 8.37963 75.8466 4.41958 70.2216 5.1543C64.5814 5.891 60.6098 11.0675 61.357 16.7085C62.1042 22.3494 67.2863 26.3126 72.9237 25.5545Z" fill="white"/>
<path d="M30.868 0.817621C31.5489 0.972533 34.69 2.69418 35.5245 3.13123C35.6483 5.0143 35.4838 7.09698 35.5422 9.00105C35.5803 10.2435 35.5539 11.657 35.4897 12.8936C39.1544 13.0879 44.2057 12.9485 47.9628 12.9352C48.0263 11.6241 47.9819 9.92809 47.9827 8.58357C47.9906 5.97893 47.9839 3.37427 47.9623 0.769707C48.9394 1.09829 51.6509 2.60132 52.6027 3.11073C52.6888 4.42981 52.6124 6.7891 52.6099 8.16542L52.5995 18.1159L52.6109 25.9694C52.615 27.107 52.7042 28.927 52.6001 29.9711C51.267 30.0504 49.3064 29.9814 47.9274 29.9746C47.9645 29.3459 47.9885 28.7061 47.9816 28.0763C47.9443 24.6443 48.0763 21.1622 47.9084 17.7362C45.6736 17.6684 43.207 17.7502 40.95 17.7271C39.4719 17.712 36.9413 17.6632 35.5407 17.7907C35.4835 21.835 35.6002 25.926 35.5266 29.9705C34.0503 30.0178 32.3639 29.9812 30.8705 29.9846C30.8046 26.5573 30.862 22.9291 30.8616 19.4792L30.868 0.817621Z" fill="white"/>
<path d="M123.917 0.143341C124.143 0.259463 124.316 0.426207 124.424 0.655738C126.457 4.98872 128.467 9.37285 130.458 13.722L135.787 25.3007C136.503 26.8636 137.271 28.3556 137.938 29.948C137.236 29.9892 133.283 30.1914 132.828 29.8333C132.342 29.4514 125.302 13.5794 124.643 11.9411C124.45 11.4616 124.325 10.991 124.235 10.482C123.329 11.6375 122.78 13.3475 122.172 14.6898C121.37 16.4597 115.652 29.4276 115.166 29.844C114.794 30.1634 110.721 29.9753 110.061 29.9078C110.691 28.0773 111.772 26.3875 112.506 24.6354C113.376 22.5599 114.331 20.6434 115.274 18.6184L120.799 6.64747C121.249 5.66736 123.32 0.685715 123.917 0.143341Z" fill="white"/>
<path d="M90.4868 0.957624C91.5624 0.933872 93.8474 2.68188 95.0868 3.08448C95.2166 10.3916 95.0938 18.064 95.0915 25.4006C96.5401 25.2881 108.547 25.203 109.225 25.3846C109.288 25.7877 108.135 27.5665 107.828 28.2185C107.642 28.6921 107.398 29.3019 107.069 29.6805C106.862 29.918 106.623 29.9736 106.318 29.9753C104.555 29.9847 102.758 29.9658 100.996 29.9651L90.4788 29.9787C90.6104 26.8146 90.498 22.7918 90.4987 19.5741L90.4868 0.957624Z" fill="white"/>
<path d="M157.762 0.913054C159.279 0.85142 161.674 0.849352 163.174 0.929871C162.786 1.74712 161.279 3.65445 160.654 4.53385C159.103 6.70745 157.534 8.86948 155.949 11.0198C154.854 12.5319 154.194 13.7108 152.875 15.0807C155.543 18.2748 158.114 21.9554 160.733 25.232C161.254 25.884 163.909 29.2922 164.163 29.8868C163.012 30.0533 159.811 29.974 158.488 29.9644C158.439 29.908 158.39 29.8506 158.343 29.7922C154.932 25.5365 151.546 20.8956 148.261 16.5227C147.573 15.6059 147.624 14.9402 148.227 14.0206C150.083 11.1935 152.178 8.514 154.146 5.76397C155.033 4.55395 156.673 1.73285 157.762 0.913054Z" fill="white"/>
<path d="M141.663 0.878387C142.34 0.984259 145.781 2.70896 146.269 3.25412C146.546 4.14533 146.446 8.82024 146.444 10.0576L146.437 20.3826L146.446 26.5082C146.448 27.5116 146.496 29.041 146.405 29.9798C144.904 30.0301 143.153 29.9784 141.633 29.97C141.71 23.2916 141.657 16.4983 141.655 9.80766L141.639 4.03621C141.635 3.12815 141.59 1.72773 141.663 0.878387Z" fill="white"/>
<path d="M168.027 0.928846C168.938 0.939125 171.734 2.59871 172.674 3.12346C172.755 3.88711 172.694 5.6301 172.689 6.46794L172.668 12.7358L172.671 24.337C172.673 26.1395 172.734 28.1782 172.681 29.9537C172.13 30.0462 168.866 29.9625 168.099 29.9503C168.197 27.707 168.152 25.2444 168.151 22.9796L168.15 11.4086L168.158 5.01408C168.159 3.91759 168.212 1.95454 168.027 0.928846Z" fill="white"/>
<path d="M0 0.86728C1.21085 0.660571 4.09692 0.737674 5.38098 0.777048C10.2745 0.95242 15.1796 0.144402 19.8126 2.12944C28.1676 5.70931 29.5434 17.6556 24.8072 24.5394C20.5048 30.7927 11.9614 29.9352 5.31889 29.9881C3.72982 30.0008 1.53522 30.0704 0 29.8458V29.6651C1.18879 29.0554 3.84364 25.5123 4.79142 25.4147C9.94816 24.8847 16.0663 26.4434 20.1528 22.2261C23.5172 18.7539 23.6409 11.5354 19.8603 8.03826C16.9283 5.32602 13.4951 5.33693 9.75499 5.33225C8.09437 5.32358 6.4337 5.33619 4.7734 5.37008C4.78595 9.25889 4.83016 13.1647 4.68502 17.0497C4.65523 17.8474 4.66315 18.6443 4.67683 19.4423C4.1474 20.3254 1.58877 22.3578 0.72705 23.244C0.650122 23.3232 0.142052 23.5291 0 23.5832V0.86728Z" fill="white"/>
<path d="M189.864 0H189.943C190.082 0.390362 190.535 1.16896 190.745 1.6315L200.665 23.1406C201.174 24.2252 203.534 29.0259 203.563 29.7801C202.989 30.0921 199.438 29.9746 198.584 29.967C196.82 26.2131 195.099 22.1075 193.382 18.3107C192.572 16.5192 190.254 11.9243 189.989 10.1855C188.698 12.9117 182.12 28.6662 180.985 29.8217C180.406 30.1323 176.736 29.9791 175.937 29.9079L185.278 9.70663L188.013 3.71193C188.655 2.29473 188.909 1.23736 189.864 0Z" fill="white"/>
<path d="M60.9466 38.495C63.9132 38.5476 65.5882 37.8473 67.4014 40.6628C67.5602 42.6869 67.2938 43.5819 65.5945 44.739C65.9533 45.8151 67.0542 47.1886 67.6835 48.2755C67.0377 48.3107 66.5012 48.2773 65.857 48.2437C64.9298 47.6576 64.172 44.0517 62.5564 45.0046C62.1223 45.6502 62.3534 47.4169 62.3959 48.3063L60.8728 48.2435C60.931 46.0827 60.8586 43.864 60.8887 41.6992C60.9032 40.6671 60.8469 39.511 60.9466 38.495ZM62.2883 43.5515C63.2332 43.5748 64.2575 43.6309 65.1152 43.1492C67.0592 41.3657 65.2479 39.8365 63.2415 39.88C62.9607 39.886 62.6877 39.8887 62.4065 39.9155C62.2301 40.174 62.3027 42.9551 62.2883 43.5515Z" fill="white"/>
<path d="M76.2942 38.4247C77.2826 38.3676 81.0885 38.3452 82.0147 38.5101C82.0119 38.9695 81.9826 39.4907 81.9665 39.9549C80.5107 39.8685 79.0514 39.8555 77.5943 39.9157L77.6299 42.6576C78.6766 42.6861 79.748 42.6574 80.7966 42.6414C80.8476 43.2923 80.8342 43.5219 80.7682 44.1634C79.8327 44.1032 78.4601 43.8279 77.7341 44.2874C77.5265 44.6643 77.6058 44.6831 77.6268 45.1824C77.6128 45.7931 77.6402 46.3509 77.6682 46.9599C78.6634 46.9648 82.447 46.3681 81.9985 48.1014C81.56 48.3955 77.1072 48.2641 76.2249 48.2627C76.3854 45.2407 76.2529 41.5225 76.2942 38.4247Z" fill="white"/>
<path d="M135.935 38.3497C136.439 38.4588 137.143 38.6449 137.499 39.0441C137.865 39.4546 137.7 45.659 137.658 46.6386C139.311 46.6917 141.025 46.6665 142.69 46.6914C142.524 47.0282 142.254 47.4688 142.063 47.8045C142.013 47.9343 141.904 48.0308 141.808 48.1349C141.169 48.3914 136.876 48.2601 135.924 48.2507C136.045 45.208 136.027 41.3947 135.935 38.3497Z" fill="white"/>
<path d="M91.1059 38.5219C92.0951 38.518 96.8868 38.3874 97.504 38.6389C97.7211 38.9067 97.7958 39.3557 97.6205 39.6609C97.1595 40.0503 95.9319 39.8939 95.1328 39.974C95.118 42.0089 95.1134 44.0438 95.119 46.0788C95.1186 46.9164 95.1298 47.4496 95.2263 48.2781C94.6823 48.305 94.1526 48.2639 93.6096 48.232C93.7383 45.7025 93.6561 42.5523 93.6529 39.9764C92.7992 39.8606 91.5757 40.1457 91.0496 39.5464C90.9587 39.1976 91.0436 38.8773 91.1059 38.5219Z" fill="white"/>
<path d="M122.807 38.335C123.278 38.42 124.037 38.797 124.497 39.0032C124.669 41.7513 124.27 45.5917 124.598 48.2735C124.017 48.2732 123.403 48.2953 122.818 48.3071L122.807 38.335Z" fill="white"/>
<path d="M105.898 48.7431C105.866 48.5351 105.816 48.0953 105.906 47.9228C106.509 46.7805 109.395 39.1111 109.882 38.8132C110.405 39.0246 112.833 45.3093 113.248 46.2009C113.543 46.835 114.091 48.0165 113.848 48.7431H113.052C111.769 47.7914 110.702 42.6477 109.896 42.2443C109.705 42.5095 109.502 43.1321 109.351 43.4206C108.75 44.5628 107.733 47.8014 107.054 48.71L107.029 48.7431H105.898Z" fill="white"/>
</svg>